<svg xmlns:dc="http://purl.org/dc/elements/1.1/" xmlns:cc="http://creativecommons.org/ns#" xmlns:rdf="http://www.w3.org/1999/02/22-rdf-syntax-ns#" xmlns:svg="http://www.w3.org/2000/svg" xmlns="http://www.w3.org/2000/svg" xmlns:sodipodi="http://sodipodi.sourceforge.net/DTD/sodipodi-0.dtd" xmlns:inkscape="http://www.inkscape.org/namespaces/inkscape" version="1.1" x="0px" y="0px" viewBox="0 0 100 100"><g transform="translate(0,-952.36218)"><path style="font-size:medium;font-style:normal;font-variant:normal;font-weight:normal;font-stretch:normal;text-indent:0;text-align:start;text-decoration:none;line-height:normal;letter-spacing:normal;word-spacing:normal;text-transform:none;direction:ltr;block-progression:tb;writing-mode:lr-tb;text-anchor:start;baseline-shift:baseline;opacity:1;color:#000000;fill:#000000;fill-opacity:1;stroke:none;stroke-width:3.57242322000000010;marker:none;visibility:visible;display:inline;overflow:visible;enable-background:accumulate;font-family:Sans;-inkscape-font-specification:Sans" d="M 50 7 C 26.263602 7 7 26.26357 7 50 C 7 73.7364 26.263602 93 50 93 C 73.736398 93 93 73.7364 93 50 C 93 26.26357 73.736398 7 50 7 z M 50 9 C 72.655518 9 91 27.34445 91 50 C 91 72.6555 72.655518 91 50 91 C 27.344482 91 9 72.6555 9 50 C 9 27.34445 27.344482 9 50 9 z M 49.875 27.96875 A 1.0001 1.0001 0 0 0 49 29 L 49 49 L 29 49 A 1.0001 1.0001 0 0 0 28.8125 49 A 1.0043849 1.0043849 0 0 0 29 51 L 49 51 L 49 71 A 1.0001 1.0001 0 1 0 51 71 L 51 51 L 71 51 A 1.0001 1.0001 0 1 0 71 49 L 51 49 L 51 29 A 1.0001 1.0001 0 0 0 49.875 27.96875 z " transform="translate(0,952.36218)"/></g></svg>