<svg xmlns="http://www.w3.org/2000/svg" xmlns:xlink="http://www.w3.org/1999/xlink" viewBox="0 0 240 240" version="1.1" x="0px" y="0px"><title>settings</title><desc>Created with Sketch.</desc><g stroke="none" stroke-width="1" fill="none" fill-rule="evenodd"><path d="M133,20 L136,46 L136.120957,46.7367927 C144.299723,48.5282461 151.978934,51.6543728 158.918772,55.8753539 L159.951533,55.0926227 L181.164737,39.5362736 L200.25662,58.6281566 L183.993164,79.1342533 L183.415408,79.9383546 C187.712059,86.7254831 190.949169,94.2498717 192.894219,102.279004 L194.5,102.5 L220.5,106.5 L220.5,133.5 L194.5,136.5 L193.128597,136.723559 C191.325256,144.642137 188.268775,152.084032 184.178793,158.829608 L185.407377,160.451533 L200.963726,181.664737 L181.871843,200.75662 L161.365747,184.493164 L159.958734,183.48044 C152.749557,188.02791 144.711722,191.381263 136.122959,193.262769 L136,194 L133,221 L106,221 L102,194 L101.831223,192.784276 C93.9535444,190.8242 86.5682242,187.618669 79.8964233,183.388844 L79.3413601,183.786057 L58.1281566,200.75662 L39.0362736,181.664737 L55.2997295,159.744426 L55.8966805,158.953814 C51.7396915,152.1276 48.6423687,144.585121 46.8331891,136.554854 L46.5,136.5 L19.5,133.5 L19.5,106.5 L46.5,102.5 L47.0720401,102.418876 C49.0269164,94.2805056 52.3086997,86.6585672 56.6757822,79.7946683 L39.7433803,58.6281566 L58.8352634,39.5362736 L80.9571361,55.9509947 C87.3485682,52.0465808 94.3699511,49.0719721 101.833228,47.2152252 L102,46 L106,20 L133,20 Z M127.652499,26 L111.147356,26 L107.944285,46.8157666 L107.225041,52.0567199 L103.281779,53.0377418 C96.4931129,54.7266561 90.0292507,57.4399579 84.0849837,61.0712065 L80.611369,63.1931769 L77.3557138,60.7499276 L59.417497,47.4393213 L47.7832771,59.0735412 L64.0407021,79.3962914 L61.7380361,83.0154734 C57.6728912,89.4048063 54.682896,96.4232108 52.9060926,103.820243 L51.9533389,107.786664 L47.379292,108.435221 L25.5,111.676597 L25.5,128.129743 L47.3192019,130.554099 L51.7977526,131.291422 L52.6864775,135.236137 C54.3305013,142.53334 57.1509928,149.477741 61.0212374,155.83309 L63.1418768,159.315403 L60.1183177,163.319508 L46.9393213,181.082503 L58.5734524,192.716634 L75.7188064,179.000351 L79.6935014,176.155987 L83.1090945,178.321424 C89.316885,182.257073 96.1169451,185.179548 103.279936,186.9618 L107.216418,187.941251 L107.935221,193.120708 L111.176597,215 L127.629743,215 L130.054793,193.174555 L130.872688,188.270642 L134.83901,187.401756 C142.638832,185.69308 150.040849,182.642578 156.757642,178.405698 L160.179855,176.247003 L164.984443,179.705196 L181.410457,192.732725 L193.081345,181.061836 L180.624617,164.074405 L176.935192,159.203784 L179.048197,155.718822 C182.855409,149.439619 185.639418,142.588059 187.278385,135.391258 L188.175544,131.45178 L193.673004,130.555614 L214.5,128.152499 L214.5,111.647363 L193.681959,108.443973 L188.025551,107.665508 L187.062885,103.69164 C185.29477,96.3928959 182.344831,89.4645697 178.345865,83.1476738 L176.179771,79.7260425 L179.20365,75.517507 L192.232725,59.0895431 L180.561833,47.418651 L163.575668,59.8744264 L159.289075,63.1232408 L155.800852,61.0016171 C149.337871,57.0706724 142.26736,54.2253289 134.83717,52.5978413 L130.859811,51.7266521 L130.056,46.8303421 L127.652499,26 Z M120,92 C135.463973,92 148,104.536027 148,120 C148,135.463973 135.463973,148 120,148 C104.536027,148 92,135.463973 92,120 C92,104.536027 104.536027,92 120,92 Z M120,98 C107.849736,98 98,107.849736 98,120 C98,132.150264 107.849736,142 120,142 C132.150264,142 142,132.150264 142,120 C142,107.849736 132.150264,98 120,98 Z" fill="#000000" fill-rule="nonzero"/></g></svg>